<svg xmlns="http://www.w3.org/2000/svg" version="1.0" width="247.000000pt" height="247.000000pt" viewBox="0 0 247.000000 247.000000" preserveAspectRatio="xMidYMid meet">

<g transform="translate(0.000000,247.000000) scale(0.100000,-0.100000)" fill="#a0a2b7" stroke="none">
<path d="M797 2349 c-222 -52 -298 -288 -178 -553 32 -72 95 -167 136 -208 35 -36 83 -37 113 -5 35 37 28 74 -29 152 -29 39 -66 99 -83 135 -27 57 -31 75 -31 152 0 72 4 91 21 115 50 69 174 89 269 43 27 -13 80 -53 118 -90 l70 -66 56 56 c102 102 216 138 338 106 195 -49 264 -203 192 -423 -40 -123 -194 -326 -340 -449 -101 -85 -227 -174 -246 -174 -28 0 -248 160 -376 273 -124 110 -247 284 -277 392 l-13 46 -151 -3 -151 -3 0 -645 0 -645 586 -5 586 -5 272 -235 c150 -129 277 -236 282 -238 5 -2 9 96 9 237 l0 241 115 0 115 0 0 650 0 649 -112 3 -113 3 3 40 c5 59 -23 178 -54 235 -75 137 -241 225 -424 224 -79 0 -106 -5 -159 -27 -35 -15 -79 -38 -97 -52 -18 -14 -36 -25 -40 -25 -4 0 -30 15 -58 34 -106 69 -231 93 -349 65z m-356 -691 c27 -66 132 -210 212 -291 136 -138 330 -290 471 -371 l78 -44 61 35 c263 148 526 409 635 631 l36 72 53 0 53 0 0 -490 0 -490 -115 0 -114 0 -3 -150 -3 -149 -174 149 -174 150 -534 0 -533 0 0 490 c0 473 1 490 19 490 12 0 24 -12 32 -32z" fill="#a0a2b7"/>
<path d="M950 1563 c-33 -12 -50 -37 -50 -73 0 -72 101 -117 148 -67 39 42 22 101 -38 132 -31 16 -36 17 -60 8z" fill="#a0a2b7"/>
</g>
</svg>